<svg width="128" height="128" viewBox="0 0 128 128" fill="none" xmlns="http://www.w3.org/2000/svg">
<g clip-path="url(#clip0_28_90)">
<path d="M21.3334 117.333C19.2307 117.339 17.1478 116.927 15.2052 116.123C13.2626 115.318 11.4989 114.136 10.016 112.645L1.78136 105.317C0.72474 104.375 0.0856217 103.052 0.00460598 101.639C-0.0764097 100.226 0.407314 98.8379 1.34936 97.7813C2.29141 96.7247 3.61462 96.0856 5.02789 96.0045C6.44117 95.9235 7.82874 96.4073 8.88536 97.3493L17.3387 104.891C17.8226 105.434 18.4126 105.873 19.0724 106.18C19.7322 106.487 20.4479 106.655 21.1753 106.675C21.9027 106.695 22.6265 106.566 23.3021 106.296C23.9778 106.026 24.591 105.62 25.104 105.104L44.304 86.8053C44.8055 86.2953 45.4045 85.8913 46.0653 85.6175C46.7261 85.3436 47.4352 85.2055 48.1505 85.2114C48.8658 85.2172 49.5726 85.3669 50.2288 85.6514C50.8851 85.936 51.4774 86.3497 51.9705 86.8678C52.4636 87.386 52.8474 87.9981 53.0992 88.6676C53.3509 89.3371 53.4654 90.0504 53.4358 90.7651C53.4062 91.4798 53.2331 92.1812 52.9269 92.8277C52.6207 93.4741 52.1876 94.0523 51.6534 94.528L32.5334 112.736C31.0601 114.201 29.3127 115.36 27.3909 116.149C25.4691 116.938 23.4107 117.341 21.3334 117.333ZM122.667 112H69.3334C67.9189 112 66.5623 111.438 65.5621 110.438C64.5619 109.438 64 108.081 64 106.667C64 105.252 64.5619 103.896 65.5621 102.895C66.5623 101.895 67.9189 101.333 69.3334 101.333H122.667C124.081 101.333 125.438 101.895 126.438 102.895C127.438 103.896 128 105.252 128 106.667C128 108.081 127.438 109.438 126.438 110.438C125.438 111.438 124.081 112 122.667 112ZM21.3334 74.6666C19.2307 74.6721 17.1478 74.2607 15.2052 73.456C13.2626 72.6513 11.4989 71.4694 10.016 69.9786L1.5627 61.5253C0.591186 60.5194 0.0536162 59.1722 0.0657678 57.7738C0.0779194 56.3754 0.63882 55.0378 1.62766 54.0489C2.61651 53.0601 3.95417 52.4992 5.35256 52.487C6.75094 52.4749 8.09815 53.0125 9.10403 53.984L17.5627 62.4373C18.578 63.4081 19.9286 63.9499 21.3334 63.9499C22.7381 63.9499 24.0887 63.4081 25.104 62.4373L44.304 44.1386C45.3281 43.1612 46.6985 42.6307 48.1138 42.6637C49.5291 42.6967 50.8733 43.2905 51.8507 44.3146C52.8281 45.3387 53.3587 46.7091 53.3257 48.1244C53.2927 49.5397 52.6988 50.8839 51.6747 51.8613L32.5334 70.0693C31.0601 71.5339 29.3127 72.6938 27.3909 73.4827C25.4691 74.2715 23.4107 74.6738 21.3334 74.6666ZM122.667 69.3333H69.3334C67.9189 69.3333 66.5623 68.7714 65.5621 67.7712C64.5619 66.771 64 65.4145 64 64C64 62.5855 64.5619 61.2289 65.5621 60.2287C66.5623 59.2285 67.9189 58.6666 69.3334 58.6666H122.667C124.081 58.6666 125.438 59.2285 126.438 60.2287C127.438 61.2289 128 62.5855 128 64C128 65.4145 127.438 66.771 126.438 67.7712C125.438 68.7714 124.081 69.3333 122.667 69.3333ZM21.3334 32C19.2307 32.0055 17.1478 31.594 15.2052 30.7893C13.2626 29.9846 11.4989 28.8027 10.016 27.312L1.78136 19.984C0.72474 19.0419 0.0856217 17.7187 0.00460598 16.3054C-0.0764097 14.8922 0.407314 13.5046 1.34936 12.448C2.29141 11.3913 3.61462 10.7522 5.02789 10.6712C6.44117 10.5902 7.82874 11.0739 8.88536 12.016L17.3387 19.5573C17.8226 20.1007 18.4126 20.5394 19.0724 20.8463C19.7322 21.1532 20.4479 21.3218 21.1753 21.3418C21.9027 21.3618 22.6265 21.2327 23.3021 20.9625C23.9778 20.6923 24.591 20.2867 25.104 19.7706L44.3254 1.47197C45.3589 0.551808 46.7097 0.0694014 48.0923 0.126639C49.475 0.183876 50.7812 0.776276 51.7352 1.77871C52.6892 2.78115 53.2162 4.11514 53.2049 5.49891C53.1936 6.88268 52.6449 8.20789 51.6747 9.19463L32.5334 27.4026C31.0601 28.8673 29.3127 30.0272 27.3909 30.816C25.4691 31.6048 23.4107 32.0072 21.3334 32ZM122.667 26.6666H69.3334C67.9189 26.6666 66.5623 26.1047 65.5621 25.1045C64.5619 24.1043 64 22.7478 64 21.3333C64 19.9188 64.5619 18.5623 65.5621 17.5621C66.5623 16.5619 67.9189 16 69.3334 16H122.667C124.081 16 125.438 16.5619 126.438 17.5621C127.438 18.5623 128 19.9188 128 21.3333C128 22.7478 127.438 24.1043 126.438 25.1045C125.438 26.1047 124.081 26.6666 122.667 26.6666Z" fill="#1E871C"/>
</g>
<defs>
<clipPath id="clip0_28_90">
<rect width="128" height="128" fill="white"/>
</clipPath>
</defs>
</svg>
