<svg width="236" height="37" viewBox="0 0 236 37" fill="none" xmlns="http://www.w3.org/2000/svg">
<g clip-path="url(#clip0_28_93)">
<path d="M16.736 6.824L19.952 13.256L8.096 19.88V20.216L19.952 26.792L16.736 33.224L1.136 24.392V15.656L16.736 6.824ZM49.0213 35H44.2213L42.1573 32.984C40.7493 34.808 38.2373 35.72 34.6213 35.72C32.6693 35.72 30.9893 35.352 29.5812 34.616C28.1732 33.88 27.1013 32.872 26.3653 31.592C24.9893 29.192 24.3012 26.328 24.3012 23C24.3012 18.936 25.1973 15.864 26.9893 13.784C27.6613 12.984 28.5893 12.328 29.7733 11.816C30.9573 11.272 32.3333 11 33.9013 11H39.4213V3.8L49.0213 3.08V35ZM34.6213 19.304V28.712H36.1093C37.1973 28.712 37.9973 28.616 38.5093 28.424C39.0533 28.2 39.3573 27.72 39.4213 26.984V17.288H37.9333C36.7813 17.288 35.9333 17.416 35.3893 17.672C34.8773 17.896 34.6213 18.44 34.6213 19.304ZM61.2481 26.84V28.52C62.2081 28.616 63.1681 28.664 64.1281 28.664C67.1041 28.664 70.1121 28.184 73.1521 27.224L74.3041 34.28C70.7201 35.24 67.1681 35.72 63.6481 35.72C59.1681 35.72 55.9201 34.68 53.9041 32.6C51.9201 30.488 50.9281 27.288 50.9281 23C50.9281 18.712 51.9201 15.528 53.9041 13.448C55.9201 11.336 59.1521 10.28 63.6001 10.28C68.0801 10.28 71.1681 10.888 72.8641 12.104C74.5601 13.32 75.4081 15.592 75.4081 18.92C75.4081 21.736 74.3841 23.768 72.3361 25.016C70.3201 26.232 66.6241 26.84 61.2481 26.84ZM61.2481 19.304V21.272H63.2161C64.3681 21.272 65.2001 21.16 65.7121 20.936C66.2561 20.68 66.5281 20.12 66.5281 19.256V17.288H64.5601C63.4081 17.288 62.5601 17.416 62.0161 17.672C61.5041 17.896 61.2481 18.44 61.2481 19.304ZM80.7087 35L74.7087 11H84.3087L86.9487 26.6H87.4287L90.0687 11H99.6687L93.6687 35H80.7087ZM119.326 35H100.126V5H109.726V27.32H119.326V35ZM129.41 26.84V28.52C130.37 28.616 131.33 28.664 132.29 28.664C135.266 28.664 138.274 28.184 141.314 27.224L142.466 34.28C138.882 35.24 135.33 35.72 131.81 35.72C127.33 35.72 124.082 34.68 122.066 32.6C120.082 30.488 119.09 27.288 119.09 23C119.09 18.712 120.082 15.528 122.066 13.448C124.082 11.336 127.314 10.28 131.762 10.28C136.242 10.28 139.33 10.888 141.026 12.104C142.722 13.32 143.57 15.592 143.57 18.92C143.57 21.736 142.546 23.768 140.498 25.016C138.482 26.232 134.786 26.84 129.41 26.84ZM129.41 19.304V21.272H131.378C132.53 21.272 133.362 21.16 133.874 20.936C134.418 20.68 134.69 20.12 134.69 19.256V17.288H132.722C131.57 17.288 130.722 17.416 130.178 17.672C129.666 17.896 129.41 18.44 129.41 19.304ZM156.647 10.28C164.327 10.28 168.167 12.92 168.167 18.2V35H163.367L160.631 32.264C159.703 33.352 158.439 34.2 156.839 34.808C155.239 35.416 153.719 35.72 152.279 35.72C150.871 35.72 149.735 35.608 148.871 35.384C148.007 35.16 147.159 34.776 146.327 34.232C144.503 33.08 143.591 30.936 143.591 27.8C143.591 22.04 147.943 19.16 156.647 19.16H158.567V17.432C157.543 17.368 156.695 17.336 156.023 17.336C152.407 17.336 149.303 17.768 146.711 18.632L145.559 11.768C148.759 10.776 152.455 10.28 156.647 10.28ZM153.287 26.744V28.712H155.255C156.663 28.712 157.559 28.552 157.943 28.232C158.359 27.912 158.567 27.496 158.567 26.984V24.728H156.599C155.447 24.728 154.599 24.856 154.055 25.112C153.543 25.336 153.287 25.88 153.287 26.744ZM170.585 11H175.385L178.025 13.688C179.913 11.96 182.281 10.824 185.129 10.28L185.705 19.352C184.937 19.384 183.929 19.576 182.681 19.928C181.465 20.28 180.633 20.728 180.185 21.272V35H170.585V11ZM191.465 11L193.865 13.4C196.841 11.32 200.041 10.28 203.465 10.28C205.705 10.28 207.465 10.776 208.745 11.768C210.025 12.728 210.665 14.072 210.665 15.8V35H201.065V18.2H199.577C198.489 18.2 197.657 18.328 197.081 18.584C196.537 18.808 196.265 19.288 196.265 20.024V35H186.665V11H191.465ZM219.244 33.224L216.028 26.792L227.884 20.216V19.88L216.028 13.256L219.244 6.824L234.844 15.656V24.392L219.244 33.224Z" fill="white"/>
</g>
<defs>
<clipPath id="clip0_28_93">
<rect width="236" height="37" fill="white"/>
</clipPath>
</defs>
</svg>
