<svg width="128" height="128" viewBox="0 0 128 128" fill="none" xmlns="http://www.w3.org/2000/svg">
<g clip-path="url(#clip0_28_87)">
<path d="M64 0C28.6538 0 0 28.6538 0 64C0 99.3462 28.6538 128 64 128C99.3462 128 128 99.3462 128 64C127.962 28.6695 99.3305 0.03825 64 0ZM85.3333 77.7972C87.5005 79.792 87.6405 83.166 85.6458 85.3333C83.651 87.5005 80.277 87.6405 78.1097 85.6458C78.0012 85.546 77.8972 85.4418 77.7972 85.3333L64 71.5413L50.208 85.3333C48.0893 87.3795 44.713 87.3208 42.6668 85.202C40.6708 83.1353 40.6708 79.8587 42.6668 77.792L56.4588 64L42.6668 50.208C40.6205 48.0893 40.6793 44.713 42.798 42.6668C44.8648 40.6708 48.1413 40.6708 50.208 42.6668L64 56.4588L77.7972 42.6668C79.792 40.4995 83.166 40.3595 85.3333 42.3543C87.5005 44.349 87.6405 47.723 85.6458 49.8903C85.546 49.9988 85.4418 50.1028 85.3333 50.2028L71.5413 64L85.3333 77.7972Z" fill="#871C1C"/>
</g>
<defs>
<clipPath id="clip0_28_87">
<rect width="128" height="128" fill="white"/>
</clipPath>
</defs>
</svg>
